<svg xmlns="http://www.w3.org/2000/svg" width="1200" height="1030" viewBox="0 0 1200 1030" role="img"><title>Gold star schema</title><defs><marker id="a" markerWidth="8" markerHeight="8" refX="7" refY="4" orient="auto"><path d="M0 0L8 4L0 8Z" fill="#8399ac"/></marker></defs><rect width="1200" height="1030" fill="white"/><text x="38" y="48" text-anchor="start" font-family="Arial,Helvetica,sans-serif" font-size="28" font-weight="700" fill="#18344f">Gold star schema</text><text x="38" y="79" text-anchor="start" font-family="Arial,Helvetica,sans-serif" font-size="13" font-weight="700" fill="#687e91">DATA MODEL / logical keys and relationships validated by dbt</text><rect x="30" y="120" width="1140" height="784" rx="18" fill="#f7fafc" stroke="#dce5ee" stroke-width="1.4"/><text x="54" y="156" text-anchor="start" font-family="Arial,Helvetica,sans-serif" font-size="12" font-weight="700" fill="#168c87">ONE COMPLAINT PER FACT ROW</text><rect x="132" y="200" width="96" height="90" rx="18" fill="#fff" stroke="#dce5ee" stroke-width="1.4"/><g transform="translate(146,211) scale(.85)" color="#3579c7"><path d="M10 18v40c0 18 60 18 60 0V18z" fill="currentColor"/><ellipse cx="40" cy="18" rx="30" ry="11" fill="currentColor"/><ellipse cx="40" cy="18" rx="23" ry="6" fill="white" opacity=".28"/><path d="M11 35c0 15 58 15 58 0M11 52c0 15 58 15 58 0" fill="none" stroke="white" stroke-width="2.5" opacity=".75"/></g><text x="180" y="316" text-anchor="middle" font-family="Arial,Helvetica,sans-serif" font-size="17" font-weight="700" fill="#18344f">dim_company</text><text x="180" y="338" text-anchor="middle" font-family="Arial,Helvetica,sans-serif" font-size="12" font-weight="400" fill="#687e91">5,661 · company_id</text><rect x="132" y="380" width="96" height="90" rx="18" fill="#fff" stroke="#dce5ee" stroke-width="1.4"/><g transform="translate(146,391) scale(.85)" color="#3579c7"><path d="M10 18v40c0 18 60 18 60 0V18z" fill="currentColor"/><ellipse cx="40" cy="18" rx="30" ry="11" fill="currentColor"/><ellipse cx="40" cy="18" rx="23" ry="6" fill="white" opacity=".28"/><path d="M11 35c0 15 58 15 58 0M11 52c0 15 58 15 58 0" fill="none" stroke="white" stroke-width="2.5" opacity=".75"/></g><text x="180" y="496" text-anchor="middle" font-family="Arial,Helvetica,sans-serif" font-size="17" font-weight="700" fill="#18344f">dim_product</text><text x="180" y="518" text-anchor="middle" font-family="Arial,Helvetica,sans-serif" font-size="12" font-weight="400" fill="#687e91">76 · product_category_id</text><rect x="132" y="560" width="96" height="90" rx="18" fill="#fff" stroke="#dce5ee" stroke-width="1.4"/><g transform="translate(146,571) scale(.85)" color="#3579c7"><path d="M10 18v40c0 18 60 18 60 0V18z" fill="currentColor"/><ellipse cx="40" cy="18" rx="30" ry="11" fill="currentColor"/><ellipse cx="40" cy="18" rx="23" ry="6" fill="white" opacity=".28"/><path d="M11 35c0 15 58 15 58 0M11 52c0 15 58 15 58 0" fill="none" stroke="white" stroke-width="2.5" opacity=".75"/></g><text x="180" y="676" text-anchor="middle" font-family="Arial,Helvetica,sans-serif" font-size="17" font-weight="700" fill="#18344f">dim_issue</text><text x="180" y="698" text-anchor="middle" font-family="Arial,Helvetica,sans-serif" font-size="12" font-weight="400" fill="#687e91">1,945 · issue_category_id</text><rect x="132" y="740" width="96" height="90" rx="18" fill="#fff" stroke="#dce5ee" stroke-width="1.4"/><g transform="translate(146,751) scale(.85)" color="#3579c7"><path d="M10 18v40c0 18 60 18 60 0V18z" fill="currentColor"/><ellipse cx="40" cy="18" rx="30" ry="11" fill="currentColor"/><ellipse cx="40" cy="18" rx="23" ry="6" fill="white" opacity=".28"/><path d="M11 35c0 15 58 15 58 0M11 52c0 15 58 15 58 0" fill="none" stroke="white" stroke-width="2.5" opacity=".75"/></g><text x="180" y="856" text-anchor="middle" font-family="Arial,Helvetica,sans-serif" font-size="17" font-weight="700" fill="#18344f">dim_submission_channel</text><text x="180" y="878" text-anchor="middle" font-family="Arial,Helvetica,sans-serif" font-size="12" font-weight="400" fill="#687e91">5 · submission_channel_id</text><rect x="532" y="470" width="96" height="90" rx="18" fill="#fff" stroke="#dce5ee" stroke-width="1.4"/><g transform="translate(546,481) scale(.85)" color="#b68b20"><rect x="6" y="12" width="68" height="56" rx="7" fill="currentColor"/><path d="M6 30h68M6 48h68M28 12v56M50 12v56" stroke="white" stroke-width="3"/><rect x="10" y="16" width="60" height="10" rx="2" fill="white" opacity=".25"/></g><text x="580" y="586" text-anchor="middle" font-family="Arial,Helvetica,sans-serif" font-size="17" font-weight="700" fill="#18344f">fact_complaints</text><text x="580" y="608" text-anchor="middle" font-family="Arial,Helvetica,sans-serif" font-size="12" font-weight="400" fill="#687e91">14,482,997 · complaint_id</text><text x="580" y="647" text-anchor="middle" font-family="Arial,Helvetica,sans-serif" font-size="14" font-weight="400" fill="#687e91">Metric flags + foreign keys</text><path d="M532 515 L420 515 L420 245 L228 245" fill="none" stroke="#8399ac" stroke-width="2" marker-end="url(#a)"/><path d="M532 515 L420 515 L420 425 L228 425" fill="none" stroke="#8399ac" stroke-width="2" marker-end="url(#a)"/><path d="M532 515 L420 515 L420 605 L228 605" fill="none" stroke="#8399ac" stroke-width="2" marker-end="url(#a)"/><path d="M532 515 L420 515 L420 785 L228 785" fill="none" stroke="#8399ac" stroke-width="2" marker-end="url(#a)"/><rect x="932" y="200" width="96" height="90" rx="18" fill="#fff" stroke="#dce5ee" stroke-width="1.4"/><g transform="translate(946,211) scale(.85)" color="#7860bd"><path d="M10 18v40c0 18 60 18 60 0V18z" fill="currentColor"/><ellipse cx="40" cy="18" rx="30" ry="11" fill="currentColor"/><ellipse cx="40" cy="18" rx="23" ry="6" fill="white" opacity=".28"/><path d="M11 35c0 15 58 15 58 0M11 52c0 15 58 15 58 0" fill="none" stroke="white" stroke-width="2.5" opacity=".75"/></g><text x="980" y="316" text-anchor="middle" font-family="Arial,Helvetica,sans-serif" font-size="17" font-weight="700" fill="#18344f">dim_date</text><text x="980" y="338" text-anchor="middle" font-family="Arial,Helvetica,sans-serif" font-size="12" font-weight="400" fill="#687e91">1,411 · date_key</text><rect x="932" y="470" width="96" height="90" rx="18" fill="#fff" stroke="#dce5ee" stroke-width="1.4"/><g transform="translate(946,481) scale(.85)" color="#3579c7"><path d="M10 18v40c0 18 60 18 60 0V18z" fill="currentColor"/><ellipse cx="40" cy="18" rx="30" ry="11" fill="currentColor"/><ellipse cx="40" cy="18" rx="23" ry="6" fill="white" opacity=".28"/><path d="M11 35c0 15 58 15 58 0M11 52c0 15 58 15 58 0" fill="none" stroke="white" stroke-width="2.5" opacity=".75"/></g><text x="980" y="586" text-anchor="middle" font-family="Arial,Helvetica,sans-serif" font-size="17" font-weight="700" fill="#18344f">dim_geography</text><text x="980" y="608" text-anchor="middle" font-family="Arial,Helvetica,sans-serif" font-size="12" font-weight="400" fill="#687e91">31,124 · geography_id</text><rect x="932" y="740" width="96" height="90" rx="18" fill="#fff" stroke="#dce5ee" stroke-width="1.4"/><g transform="translate(946,751) scale(.85)" color="#3579c7"><path d="M10 18v40c0 18 60 18 60 0V18z" fill="currentColor"/><ellipse cx="40" cy="18" rx="30" ry="11" fill="currentColor"/><ellipse cx="40" cy="18" rx="23" ry="6" fill="white" opacity=".28"/><path d="M11 35c0 15 58 15 58 0M11 52c0 15 58 15 58 0" fill="none" stroke="white" stroke-width="2.5" opacity=".75"/></g><text x="980" y="856" text-anchor="middle" font-family="Arial,Helvetica,sans-serif" font-size="17" font-weight="700" fill="#18344f">dim_response</text><text x="980" y="878" text-anchor="middle" font-family="Arial,Helvetica,sans-serif" font-size="12" font-weight="400" fill="#687e91">69 · response_id</text><path d="M628 495 L760 495 L760 230 L932 230" fill="none" stroke="#8399ac" stroke-width="2" marker-end="url(#a)"/><text x="770" y="220" text-anchor="start" font-family="Arial,Helvetica,sans-serif" font-size="11" font-weight="400" fill="#687e91">received_date_key</text><path d="M628 530 L800 530 L800 260 L932 260" fill="none" stroke="#8399ac" stroke-width="2" marker-end="url(#a)"/><text x="807" y="295" text-anchor="start" font-family="Arial,Helvetica,sans-serif" font-size="11" font-weight="400" fill="#687e91">sent_date_key</text><path d="M628 515 L932 515" fill="none" stroke="#8399ac" stroke-width="2" marker-end="url(#a)"/><path d="M628 540 L760 540 L760 785 L932 785" fill="none" stroke="#8399ac" stroke-width="2" marker-end="url(#a)"/><text x="54" y="938" text-anchor="start" font-family="Arial,Helvetica,sans-serif" font-size="15" font-weight="400" fill="#18344f">Seven dimensions · Two calendar roles · No dimension-to-dimension relationships</text><text x="54" y="975" text-anchor="start" font-family="Arial,Helvetica,sans-serif" font-size="13" font-weight="400" fill="#687e91">Existing wide gold retained; the star uses identical flags for a fair future agent comparison.</text></svg>