<svg xmlns="http://www.w3.org/2000/svg" width="1400" height="880" viewBox="0 0 1400 880" role="img"><title>Financial Complaint Intelligence</title><desc>SYSTEM ARCHITECTURE · Scheduled refresh → validated release PR → six-tab leadership dashboard</desc><defs><marker id="arrow" markerWidth="9" markerHeight="9" refX="8" refY="4" orient="auto"><path d="M0 0 L8 4 L0 8 Z" fill="#7f93a6"/></marker></defs><rect width="1400" height="880" fill="#f5f8fb"/><text x="50" y="54" font-family="Arial" font-size="28" font-weight="700" fill="#18344f">Financial Complaint Intelligence</text><text x="50" y="83" font-family="Arial" font-size="14" fill="#687e91">SYSTEM ARCHITECTURE · Scheduled refresh → validated release PR → six-tab leadership dashboard</text><path d="M350 215.0 L380 215.0" stroke="#7f93a6" stroke-width="2" fill="none" marker-end="url(#arrow)"/><path d="M680 215.0 L710 215.0" stroke="#7f93a6" stroke-width="2" fill="none" marker-end="url(#arrow)"/><path d="M1010 215.0 L1040 215.0" stroke="#7f93a6" stroke-width="2" fill="none" marker-end="url(#arrow)"/><path d="M1190.0 295 L1190.0 370" stroke="#7f93a6" stroke-width="2" fill="none" marker-end="url(#arrow)"/><path d="M1040 450.0 L1010 450.0" stroke="#7f93a6" stroke-width="2" fill="none" marker-end="url(#arrow)"/><path d="M710 450.0 L680 450.0" stroke="#7f93a6" stroke-width="2" fill="none" marker-end="url(#arrow)"/><path d="M380 450.0 L350 450.0" stroke="#7f93a6" stroke-width="2" fill="none" marker-end="url(#arrow)"/><path d="M1010 715.0 L1040 715.0" stroke="#7f93a6" stroke-width="2" fill="none" marker-end="url(#arrow)"/><rect x="50" y="135" width="300" height="160" rx="16" fill="white" stroke="#c5d1dc"/><rect x="68" y="155" width="38" height="38" rx="10" fill="#147d83"/><g transform="translate(75,163)" fill="white"><ellipse cx="12" cy="3" rx="11" ry="3"/><path d="M1 3v6c0 5 22 5 22 0V3c-5 4-17 4-22 0zM1 13v6c0 5 22 5 22 0v-6c-5 4-17 4-22 0z"/></g><text x="120" y="179" font-family="Arial" font-size="17" font-weight="700" fill="#18344f">CFPB public archives</text><text x="70" y="217" font-family="Arial" font-size="13" fill="#52657a">Official ZIP catalogue</text><text x="70" y="240" font-family="Arial" font-size="13" fill="#52657a">HTTP validators + SHA-256</text><text x="70" y="263" font-family="Arial" font-size="13" fill="#52657a">Source release timing is external</text><rect x="380" y="135" width="300" height="160" rx="16" fill="white" stroke="#c5d1dc"/><rect x="398" y="155" width="38" height="38" rx="10" fill="#147d83"/><g transform="translate(405,163)" fill="white"><ellipse cx="12" cy="3" rx="11" ry="3"/><path d="M1 3v6c0 5 22 5 22 0V3c-5 4-17 4-22 0zM1 13v6c0 5 22 5 22 0v-6c-5 4-17 4-22 0z"/></g><text x="450" y="179" font-family="Arial" font-size="17" font-weight="700" fill="#18344f">GitHub Actions</text><text x="400" y="217" font-family="Arial" font-size="13" fill="#52657a">Daily 11:23 UTC + manual run</text><text x="400" y="240" font-family="Arial" font-size="13" fill="#52657a">Compare source / code revision</text><text x="400" y="263" font-family="Arial" font-size="13" fill="#52657a">Skip unchanged releases</text><rect x="710" y="135" width="300" height="160" rx="16" fill="white" stroke="#c5d1dc"/><rect x="728" y="155" width="38" height="38" rx="10" fill="#147d83"/><g transform="translate(735,163)" fill="white"><ellipse cx="12" cy="3" rx="11" ry="3"/><path d="M1 3v6c0 5 22 5 22 0V3c-5 4-17 4-22 0zM1 13v6c0 5 22 5 22 0v-6c-5 4-17 4-22 0z"/></g><text x="780" y="179" font-family="Arial" font-size="17" font-weight="700" fill="#18344f">Rolling bronze ingestion</text><text x="730" y="217" font-family="Arial" font-size="13" fill="#52657a">36 months by received date</text><text x="730" y="240" font-family="Arial" font-size="13" fill="#52657a">Latest release wins overlapping IDs</text><text x="730" y="263" font-family="Arial" font-size="13" fill="#52657a">CSV chunks + provenance</text><rect x="1040" y="135" width="300" height="160" rx="16" fill="white" stroke="#c5d1dc"/><rect x="1058" y="155" width="38" height="38" rx="10" fill="#147d83"/><g transform="translate(1065,163)" fill="white"><ellipse cx="12" cy="3" rx="11" ry="3"/><path d="M1 3v6c0 5 22 5 22 0V3c-5 4-17 4-22 0zM1 13v6c0 5 22 5 22 0v-6c-5 4-17 4-22 0z"/></g><text x="1110" y="179" font-family="Arial" font-size="17" font-weight="700" fill="#18344f">DuckDB + dbt</text><text x="1060" y="217" font-family="Arial" font-size="13" fill="#52657a">Staging → 8 silver tables</text><text x="1060" y="240" font-family="Arial" font-size="13" fill="#52657a">Wide gold + parallel star schema</text><text x="1060" y="263" font-family="Arial" font-size="13" fill="#52657a">Temporary runner database</text><rect x="1040" y="370" width="300" height="160" rx="16" fill="white" stroke="#c5d1dc"/><rect x="1058" y="390" width="38" height="38" rx="10" fill="#147d83"/><g transform="translate(1065,398)" fill="white"><ellipse cx="12" cy="3" rx="11" ry="3"/><path d="M1 3v6c0 5 22 5 22 0V3c-5 4-17 4-22 0zM1 13v6c0 5 22 5 22 0v-6c-5 4-17 4-22 0z"/></g><text x="1110" y="414" font-family="Arial" font-size="17" font-weight="700" fill="#18344f">Validation gate</text><text x="1060" y="452" font-family="Arial" font-size="13" fill="#52657a">21 models / 126 dbt tests</text><text x="1060" y="475" font-family="Arial" font-size="13" fill="#52657a">Four export totals reconcile</text><text x="1060" y="498" font-family="Arial" font-size="13" fill="#52657a">Failed build keeps last release</text><rect x="710" y="370" width="300" height="160" rx="16" fill="white" stroke="#c5d1dc"/><rect x="728" y="390" width="38" height="38" rx="10" fill="#147d83"/><g transform="translate(735,398)" fill="white"><ellipse cx="12" cy="3" rx="11" ry="3"/><path d="M1 3v6c0 5 22 5 22 0V3c-5 4-17 4-22 0zM1 13v6c0 5 22 5 22 0v-6c-5 4-17 4-22 0z"/></g><text x="780" y="414" font-family="Arial" font-size="17" font-weight="700" fill="#18344f">Four serving datasets</text><text x="730" y="452" font-family="Arial" font-size="13" fill="#52657a">Daily company / product + issues</text><text x="730" y="475" font-family="Arial" font-size="13" fill="#52657a">State + submission channel</text><text x="730" y="498" font-family="Arial" font-size="13" fill="#52657a">One revision manifest</text><rect x="380" y="370" width="300" height="160" rx="16" fill="white" stroke="#c5d1dc"/><rect x="398" y="390" width="38" height="38" rx="10" fill="#147d83"/><g transform="translate(405,398)" fill="white"><ellipse cx="12" cy="3" rx="11" ry="3"/><path d="M1 3v6c0 5 22 5 22 0V3c-5 4-17 4-22 0zM1 13v6c0 5 22 5 22 0v-6c-5 4-17 4-22 0z"/></g><text x="450" y="414" font-family="Arial" font-size="17" font-weight="700" fill="#18344f">Branch → PR → merge</text><text x="400" y="452" font-family="Arial" font-size="13" fill="#52657a">Validation evidence in PR</text><text x="400" y="475" font-family="Arial" font-size="13" fill="#52657a">Merge commit; respect repo rules</text><text x="400" y="498" font-family="Arial" font-size="13" fill="#52657a">Bot PR setting must allow creation</text><rect x="50" y="370" width="300" height="160" rx="16" fill="white" stroke="#c5d1dc"/><rect x="68" y="390" width="38" height="38" rx="10" fill="#147d83"/><g transform="translate(75,398)" fill="white"><ellipse cx="12" cy="3" rx="11" ry="3"/><path d="M1 3v6c0 5 22 5 22 0V3c-5 4-17 4-22 0zM1 13v6c0 5 22 5 22 0v-6c-5 4-17 4-22 0z"/></g><text x="120" y="414" font-family="Arial" font-size="17" font-weight="700" fill="#18344f">Streamlit dashboard</text><text x="70" y="452" font-family="Arial" font-size="13" fill="#52657a">Six tabs + shared filters</text><text x="70" y="475" font-family="Arial" font-size="13" fill="#52657a">Version-aware query cache</text><text x="70" y="498" font-family="Arial" font-size="13" fill="#52657a">Coverage + last validation time</text><rect x="50" y="640" width="630" height="150" rx="16" fill="white" stroke="#c5d1dc"/><rect x="68" y="660" width="38" height="38" rx="10" fill="#147d83"/><g transform="translate(75,668)" fill="white"><ellipse cx="12" cy="3" rx="11" ry="3"/><path d="M1 3v6c0 5 22 5 22 0V3c-5 4-17 4-22 0zM1 13v6c0 5 22 5 22 0v-6c-5 4-17 4-22 0z"/></g><text x="120" y="684" font-family="Arial" font-size="17" font-weight="700" fill="#18344f">Development and recovery</text><text x="70" y="722" font-family="Arial" font-size="13" fill="#52657a">Live Colab notebook remains the interactive reference</text><text x="70" y="745" font-family="Arial" font-size="13" fill="#52657a">Drive checkpoints remain unchanged; runner caches are disposable</text><text x="70" y="768" font-family="Arial" font-size="13" fill="#52657a">First full scheduled publication still needs acceptance</text><rect x="710" y="640" width="300" height="150" rx="16" fill="white" stroke="#c5d1dc" stroke-dasharray="6 4"/><rect x="728" y="660" width="38" height="38" rx="10" fill="#8b98a7"/><g transform="translate(735,668)" fill="white"><ellipse cx="12" cy="3" rx="11" ry="3"/><path d="M1 3v6c0 5 22 5 22 0V3c-5 4-17 4-22 0zM1 13v6c0 5 22 5 22 0v-6c-5 4-17 4-22 0z"/></g><text x="780" y="684" font-family="Arial" font-size="17" font-weight="700" fill="#18344f">Detailed-data service</text><text x="730" y="722" font-family="Arial" font-size="13" fill="#52657a">PLANNED</text><text x="730" y="745" font-family="Arial" font-size="13" fill="#52657a">Persistent SQL / narrative access</text><text x="730" y="768" font-family="Arial" font-size="13" fill="#52657a">Runner DB is not a hosted service</text><rect x="1040" y="640" width="300" height="150" rx="16" fill="white" stroke="#c5d1dc" stroke-dasharray="6 4"/><rect x="1058" y="660" width="38" height="38" rx="10" fill="#8b98a7"/><g transform="translate(1065,668)" fill="white"><ellipse cx="12" cy="3" rx="11" ry="3"/><path d="M1 3v6c0 5 22 5 22 0V3c-5 4-17 4-22 0zM1 13v6c0 5 22 5 22 0v-6c-5 4-17 4-22 0z"/></g><text x="1110" y="684" font-family="Arial" font-size="17" font-weight="700" fill="#18344f">Evidence-backed AI agent</text><text x="1060" y="722" font-family="Arial" font-size="13" fill="#52657a">PLANNED</text><text x="1060" y="745" font-family="Arial" font-size="13" fill="#52657a">Read-only SQL + narrative retrieval</text><text x="1060" y="768" font-family="Arial" font-size="13" fill="#52657a">LLM + accuracy / citation evaluation</text><text x="50" y="840" font-family="Arial" font-size="13" fill="#687e91">Solid: implemented code / live analytics · Dashed: planned AI components · No deployed LLM agent yet</text></svg>